<?xml version="1.0" encoding="utf-8"?>
<!-- Generator: Adobe Illustrator 16.0.0, SVG Export Plug-In . SVG Version: 6.00 Build 0)  -->
<!DOCTYPE svg PUBLIC "-//W3C//DTD SVG 1.1//EN" "http://www.w3.org/Graphics/SVG/1.1/DTD/svg11.dtd">
<svg version="1.1" id="Слой_1" xmlns="http://www.w3.org/2000/svg" xmlns:xlink="http://www.w3.org/1999/xlink" x="0px" y="0px"
	 width="100px" height="100px" viewBox="0 0 100 100" enable-background="new 0 0 100 100" xml:space="preserve">
<g id="Слой_2">
	<path id="XMLID_1_" fill="none" stroke="#FFFFFF" stroke-width="6" stroke-miterlimit="10" d="M42.013,57.177
		c0,0,12.482,12.305,17.563,13.284L70.008,60.03c0,0,4.102-3.924,8.47,0.089l17.029,17.029c0,0,2.765,5.081-0.445,8.202
		l-8.292,8.292c0,0-14.622,9.36-38.07-5.617c0,0-11.056-5.796-21.309-16.227"/>
	<path id="XMLID_4_" fill="none" stroke="#FFFFFF" stroke-width="6" stroke-miterlimit="10" d="M42.904,58.068
		c0,0-12.304-12.482-13.374-17.564l10.432-10.431c0,0,3.923-4.102-0.089-8.471L22.755,4.574c0,0-5.082-2.763-8.203,0.447
		l-8.291,8.292c0,0-9.362,14.622,5.706,38.07c0,0,5.796,11.056,16.315,21.309"/>
</g>
</svg>
