<?xml version="1.0" encoding="utf-8"?>
<!-- Generator: Adobe Illustrator 16.0.0, SVG Export Plug-In . SVG Version: 6.00 Build 0)  -->
<!DOCTYPE svg PUBLIC "-//W3C//DTD SVG 1.1//EN" "http://www.w3.org/Graphics/SVG/1.1/DTD/svg11.dtd">
<svg version="1.1" id="Layer_1" xmlns="http://www.w3.org/2000/svg" xmlns:xlink="http://www.w3.org/1999/xlink" x="0px" y="0px"
	 width="100px" height="100px" viewBox="0 0 100 100" enable-background="new 0 0 100 100" xml:space="preserve">
<title>Facebook icon</title>
<path fill="#FFFFFF" d="M94.483,0H5.517C2.471,0,0,2.471,0,5.517v88.967C0,97.533,2.471,100,5.517,100h47.892V61.275H40.371V46.188
	h13.038V35.042c0-12.913,7.892-19.938,19.412-19.938c5.521,0,10.268,0.404,11.65,0.588v13.5h-8.004c-6.25,0-7.467,3.004-7.467,7.379
	V46.2h14.934l-1.938,15.125H69V100h25.479c3.055,0,5.521-2.467,5.521-5.517V5.517C100,2.471,97.533,0,94.483,0"/>
</svg>
