<?xml version="1.0" encoding="utf-8"?>
<!-- Generator: Adobe Illustrator 16.0.0, SVG Export Plug-In . SVG Version: 6.00 Build 0)  -->
<!DOCTYPE svg PUBLIC "-//W3C//DTD SVG 1.1//EN" "http://www.w3.org/Graphics/SVG/1.1/DTD/svg11.dtd">
<svg version="1.1" id="Layer_1" xmlns="http://www.w3.org/2000/svg" xmlns:xlink="http://www.w3.org/1999/xlink" x="0px" y="0px"
	 width="100px" height="100px" viewBox="0 0 100 100" enable-background="new 0 0 100 100" xml:space="preserve">
<title>Twitter icon</title>
<path fill="#FFFFFF" d="M99.809,19.038c-3.688,1.621-7.625,2.725-11.771,3.229c4.226-2.546,7.476-6.558,9.013-11.346
	c-3.962,2.313-8.354,3.996-13.028,4.933c-3.734-3.996-9.055-6.496-14.963-6.496c-11.321,0-20.5,9.179-20.5,20.487
	c0,1.625,0.188,3.188,0.529,4.684c-17.042-0.804-32.146-8.988-42.254-21.358c-1.779,3.008-2.775,6.504-2.775,10.313
	c0,7.125,3.625,13.387,9.117,17.066c-3.362-0.108-6.525-1.033-9.283-2.566v0.254c0,9.938,7.054,18.226,16.442,20.112
	c-1.721,0.463-3.538,0.713-5.4,0.713c-1.308,0-2.563-0.125-3.816-0.358c2.629,8.138,10.188,14.071,19.183,14.237
	c-7,5.496-15.871,8.771-25.425,8.771c-1.625,0-3.246-0.096-4.875-0.279c9.121,5.809,19.867,9.204,31.487,9.204
	c37.726,0,58.329-31.233,58.329-58.275c0-0.871,0-1.75-0.063-2.625c4.004-2.871,7.5-6.5,10.25-10.617L99.809,19.038L99.809,19.038z"
	/>
</svg>
