<?xml version="1.0" encoding="utf-8"?>
<!-- Generator: Adobe Illustrator 16.0.0, SVG Export Plug-In . SVG Version: 6.00 Build 0)  -->
<!DOCTYPE svg PUBLIC "-//W3C//DTD SVG 1.1//EN" "http://www.w3.org/Graphics/SVG/1.1/DTD/svg11.dtd">
<svg version="1.1" id="Layer_1" xmlns="http://www.w3.org/2000/svg" xmlns:xlink="http://www.w3.org/1999/xlink" x="0px" y="0px"
	 width="100px" height="100px" viewBox="0 0 100 100" enable-background="new 0 0 100 100" xml:space="preserve">
<title>YouTube icon</title>
<path fill="#FFFFFF" d="M97.896,25.854c-1.18-4.222-4.479-7.521-8.701-8.7c-7.791-2.088-39.149-2.088-39.149-2.088
	s-31.279-0.042-39.15,2.088c-4.223,1.178-7.522,4.478-8.7,8.7c-1.477,7.977-2.205,16.075-2.175,24.188
	c-0.024,8.082,0.704,16.149,2.175,24.096c1.178,4.222,4.478,7.521,8.7,8.7c7.783,2.092,39.15,2.092,39.15,2.092
	s31.274,0,39.149-2.092c4.223-1.179,7.521-4.479,8.701-8.7c1.439-7.95,2.137-16.017,2.082-24.096
	C100.039,41.932,99.342,33.834,97.896,25.854L97.896,25.854z M40.038,65.004V35.033l26.1,15.008L40.038,65.004z"/>
</svg>
